<?xml version="1.0" encoding="iso-8859-1"?>
<!-- Generator: Adobe Illustrator 19.0.0, SVG Export Plug-In . SVG Version: 6.00 Build 0)  -->
<svg version="1.1" id="Layer_1" xmlns="http://www.w3.org/2000/svg" xmlns:xlink="http://www.w3.org/1999/xlink" x="0px" y="0px"
	 viewBox="0 0 512 512" style="enable-background:new 0 0 512 512;" xml:space="preserve">
<path style="fill:#274B6D;" d="M124.643,318.631c-3.093,20.141-11.722,53.561-35.807,80.975l25.223,25.223
	c3.191,3.191,3.191,8.364,0,11.554c-0.003,0.003,11.551,11.557,11.551,11.557c28.375-28.375,65.315-38.08,86.942-41.4
	L124.643,318.631z"/>
<path style="fill:#185F8D;" d="M108.282,438.775c-2.09,0-4.182-0.797-5.778-2.393l-25.035-25.035l-11.554,11.555l1.926,1.926
	c0.011,0.011,38.498,38.499,38.498,38.499c0.021,0.021,1.941,1.941,1.941,1.941l17.33-17.33l-11.554-11.554
	C112.46,437.979,110.37,438.775,108.282,438.775z"/>
<polygon style="fill:#FFCC75;" points="62.071,442.167 27.893,476.356 81.782,476.351 89.017,469.115 "/>
<rect x="105.639" y="327.852" transform="matrix(-0.7071 -0.7071 0.7071 -0.7071 82.6265 717.1553)" style="fill:#6DA8D6;" width="168.404" height="27.226"/>
<path style="fill:#FFCC75;" d="M296.587,185.391L182.515,291.78l57.008,57.008L474.976,96.333l-40.006-40.006L320.488,163.1
	c-1.574,1.468-3.574,2.195-5.57,2.195c-2.187,0-4.367-0.873-5.976-2.597l-11.951,11.146
	C300.067,177.144,299.887,182.313,296.587,185.391z"/>
<g>
	<path style="fill:#FF9D49;" d="M170.954,280.219L285.443,173.44c3.3-3.079,8.469-2.898,11.547,0.403
		c0.001,0.001,11.951-11.145,11.951-11.145c-3.079-3.3-2.899-8.471,0.401-11.548L423.408,44.765l-1.74-1.74
		c-4.762-4.763-11.215-7.385-18.172-7.385c-6.6,0-12.811,2.402-17.488,6.764L151.684,260.949L170.954,280.219z"/>
	<path style="fill:#FF9D49;" d="M488.276,109.634l-1.74-1.74L251.083,360.349l19.269,19.269l218.545-234.326
		C498.221,135.296,497.942,119.3,488.276,109.634z"/>
</g>
<path style="fill:#082947;" d="M499.831,98.079l-66.607-66.607c-7.849-7.849-18.406-12.171-29.727-12.171
	c-10.751,0-20.919,3.962-28.632,11.155L134.352,254.77c-0.069,0.065-0.137,0.131-0.205,0.198l-30.806,30.806
	c-1.532,1.532-2.392,3.61-2.392,5.777c0,2.167,0.861,4.245,2.392,5.777l6.52,6.52c-0.88,12.592-6.237,58.234-38.17,90.167
	l-23.109,23.109c-3.191,3.191-3.191,8.364,0,11.554l1.934,1.934L2.392,478.754c-2.337,2.337-3.034,5.851-1.769,8.903
	c1.265,3.052,4.244,5.043,7.549,5.043l76.995-0.01c2.166,0,4.244-0.862,5.776-2.393l9.629-9.629l1.931,1.931
	c1.596,1.596,3.686,2.393,5.778,2.393c2.09,0,4.182-0.797,5.778-2.393l23.11-23.109c31.817-31.817,77.575-37.256,90.174-38.162
	l6.633,6.633c1.533,1.533,3.61,2.393,5.778,2.393s4.244-0.861,5.778-2.393l30.805-30.806c0.068-0.068,0.133-0.135,0.197-0.205
	l224.317-240.512C516.105,140.077,515.65,113.898,499.831,98.079z M125.612,447.937l-17.332,17.332l-1.921-1.921
	c-0.021-0.021-38.508-38.508-38.508-38.508c-0.011-0.011-1.937-1.937-1.937-1.937l11.554-11.555l25.035,25.035
	c1.596,1.595,3.688,2.393,5.778,2.393c2.089,0,4.179-0.797,5.775-2.39c3.194-3.194,3.194-8.367,0.003-11.557l-25.223-25.223
	c24.085-27.414,32.715-60.833,35.807-80.975l87.909,87.909C190.924,409.859,153.984,419.565,125.612,447.937z M27.893,476.356
	l34.178-34.189l26.947,26.947l-7.236,7.236L27.893,476.356z M403.498,35.641c6.957,0,13.41,2.623,18.172,7.385l1.74,1.74
	L309.344,151.15c-3.3,3.077-3.479,8.248-0.402,11.547c1.609,1.726,3.79,2.598,5.976,2.598c1.996,0,3.996-0.727,5.57-2.195
	L434.971,56.327l40.006,40.006L239.523,348.788l-57.008-57.008l114.072-106.39c3.3-3.077,3.479-8.247,0.403-11.546
	c-3.079-3.302-8.248-3.483-11.547-0.404L170.954,280.219l-19.27-19.27L386.01,42.406C390.687,38.043,396.897,35.641,403.498,35.641z
	 M120.673,291.552l19.252-19.252l119.079,119.079l-19.251,19.251L120.673,291.552z M270.353,379.618l-19.269-19.269l235.452-252.455
	l1.74,1.74c9.666,9.666,9.945,25.662,0.622,35.659L270.353,379.618z"/>
<g>
</g>
<g>
</g>
<g>
</g>
<g>
</g>
<g>
</g>
<g>
</g>
<g>
</g>
<g>
</g>
<g>
</g>
<g>
</g>
<g>
</g>
<g>
</g>
<g>
</g>
<g>
</g>
<g>
</g>
</svg>
