<svg id="Capa_1" enable-background="new 0 0 512 512" height="512" viewBox="0 0 512 512" width="512" xmlns="http://www.w3.org/2000/svg"><g><g><path d="m229.306 319.401c-33.31 0-60.409-27.099-60.409-60.409v-121.751c0-24.603 20.016-44.619 44.619-44.619s44.62 20.016 44.62 44.619v89.816c0 4.145-3.36 7.504-7.504 7.504s-7.504-3.359-7.504-7.504v-89.816c0-16.327-13.284-29.61-29.611-29.61s-29.611 13.283-29.611 29.61v121.752c0 25.034 20.366 45.4 45.4 45.4s45.4-20.367 45.4-45.4v-191.08c0-29.172-23.733-52.905-52.905-52.905s-52.905 23.733-52.905 52.905v105.636c0 4.145-3.36 7.504-7.504 7.504s-7.504-3.359-7.504-7.504v-105.636c.001-37.448 30.467-67.913 67.914-67.913s67.913 30.465 67.913 67.913v191.079c0 33.31-27.099 60.409-60.409 60.409z" fill="#95d6a4"/></g><g><path d="m362.576 512c-37.447 0-67.913-30.465-67.913-67.913v-105.636c0-4.145 3.36-7.504 7.504-7.504s7.504 3.359 7.504 7.504v-85.443c0-33.31 27.099-60.409 60.409-60.409s60.409 27.099 60.409 60.409v191.079c0 37.448-30.466 67.913-67.913 67.913zm-52.905-137.242v69.329c0 29.172 23.733 52.905 52.905 52.905s52.905-23.733 52.905-52.905v-191.079c0-25.034-20.366-45.4-45.4-45.4s-45.4 20.367-45.4 45.4v121.751c0 16.327 13.284 29.611 29.611 29.611s29.611-13.284 29.611-29.611v-89.816c0-4.145 3.36-7.504 7.504-7.504s7.504 3.359 7.504 7.504v89.816c0 24.604-20.016 44.62-44.619 44.62-24.605-.001-44.621-20.017-44.621-44.621z" fill="#e28086"/></g><g><path d="m282.34 466.139c-18.14 0-35.194-7.064-48.021-19.891l-135.114-135.113c-11.41-11.41-17.693-26.579-17.693-42.715s6.284-31.306 17.693-42.716c11.41-11.41 26.579-17.693 42.715-17.693s31.306 6.284 42.715 17.693l86.091 86.091c17.397 17.397 17.397 45.704 0 63.102-17.397 17.396-45.704 17.396-63.101 0l-63.509-63.509c-2.931-2.931-2.931-7.682 0-10.613 2.93-2.929 7.682-2.929 10.612 0l63.509 63.509c11.546 11.546 30.332 11.546 41.876 0 11.545-11.545 11.545-30.33 0-41.875l-86.091-86.091c-8.575-8.576-19.976-13.298-32.103-13.298s-23.528 4.722-32.103 13.297c-8.575 8.576-13.297 19.977-13.297 32.104s4.722 23.528 13.297 32.102l135.114 135.114c9.992 9.993 23.278 15.496 37.409 15.496s27.417-5.503 37.409-15.496c20.627-20.627 20.627-54.19 0-74.817l-74.696-74.696c-2.931-2.931-2.931-7.682 0-10.613 2.93-2.929 7.682-2.929 10.612 0l74.696 74.696c26.479 26.48 26.479 69.564 0 96.044-12.825 12.824-29.88 19.888-48.02 19.888z" fill="#80b4fb"/></g></g></svg>