<?xml version="1.0" encoding="iso-8859-1"?>
<!-- Generator: Adobe Illustrator 19.0.0, SVG Export Plug-In . SVG Version: 6.00 Build 0)  -->
<svg version="1.1" id="Layer_1" xmlns="http://www.w3.org/2000/svg" xmlns:xlink="http://www.w3.org/1999/xlink" x="0px" y="0px"
	 viewBox="0 0 512 512" style="enable-background:new 0 0 512 512;" xml:space="preserve">
<path style="fill:#98D9D5;" d="M111.66,398.979c-4.513,0-8.17-3.658-8.17-8.17h-16.34c0,4.512-3.657,8.17-8.17,8.17H16.34v16.34
	H495.66v-16.34H111.66z"/>
<path style="fill:#C1E8E6;" d="M111.66,382.638h384v-38.128h-24.511c-4.513,0-8.17-3.658-8.17-8.17c0-4.512,3.657-8.17,8.17-8.17
	h24.356c-0.897-26.634-6.158-52.177-15.094-75.94l-22.513,9.325c-1.022,0.424-2.082,0.624-3.123,0.624
	c-3.206,0-6.247-1.9-7.551-5.046c-1.728-4.169,0.252-8.948,4.422-10.675l22.501-9.319c-10.848-23.76-25.473-45.444-43.092-64.296
	l-17.143,17.143c-1.595,1.595-3.686,2.393-5.777,2.393c-2.092,0-4.182-0.797-5.778-2.393c-3.191-3.191-3.191-8.364,0.001-11.554
	L419.5,161.29c-18.854-17.62-40.537-32.244-64.297-43.093l-9.319,22.501c-1.303,3.146-4.344,5.046-7.551,5.046
	c-1.043,0-2.101-0.2-3.123-0.624c-4.169-1.727-6.149-6.507-4.422-10.675l9.325-22.513c-23.763-8.936-49.307-14.198-75.94-15.094
	v24.356c0,4.512-3.657,8.17-8.17,8.17c-4.513,0-8.17-3.658-8.17-8.17V96.836c-26.634,0.897-52.177,6.158-75.94,15.094l9.325,22.513
	c1.728,4.169-0.252,8.948-4.422,10.675c-1.022,0.424-2.082,0.624-3.123,0.624c-3.206,0-6.247-1.9-7.551-5.046l-9.32-22.501
	c-23.76,10.848-45.445,25.473-64.297,43.093l17.143,17.142c3.192,3.191,3.192,8.363,0.001,11.554
	c-1.596,1.595-3.687,2.393-5.778,2.393s-4.182-0.797-5.777-2.393L80.948,172.84c-17.62,18.852-32.244,40.536-43.092,64.296
	l22.501,9.32c4.169,1.727,6.149,6.507,4.422,10.675c-1.303,3.146-4.344,5.046-7.551,5.046c-1.043,0-2.101-0.2-3.123-0.624
	l-22.513-9.325c-8.936,23.763-14.198,49.307-15.094,75.94h24.354c4.513,0,8.17,3.658,8.17,8.17s-3.657,8.17-8.17,8.17H16.34v38.128
	h62.638c4.513,0,8.17,3.658,8.17,8.17h16.34C103.489,386.296,107.146,382.638,111.66,382.638z M87.149,336.34
	c0-93.104,75.745-168.851,168.851-168.851s168.851,75.747,168.851,168.851c0,4.512-3.657,8.17-8.17,8.17h-87.149
	c-4.513,0-8.17-3.658-8.17-8.17c0-36.04-29.321-65.362-65.362-65.362s-65.362,29.321-65.362,65.362c0,4.512-3.657,8.17-8.17,8.17
	H95.319C90.806,344.511,87.149,340.853,87.149,336.34z"/>
<g>
	<path style="fill:#082947;" d="M437.033,155.336C388.655,106.964,324.374,80.34,256,80.34s-132.655,26.624-181.006,74.968
		C26.624,203.686,0,267.967,0,336.34v87.149c0,4.512,3.657,8.17,8.17,8.17h495.66c4.513,0,8.17-3.658,8.17-8.17V336.34
		C512,267.967,485.376,203.686,437.033,155.336z M16.34,415.319v-16.34h62.638c4.513,0,8.17-3.658,8.17-8.17
		c0-4.512-3.657-8.17-8.17-8.17H16.34v-38.128h24.511c4.513,0,8.17-3.658,8.17-8.17c0-4.512-3.657-8.17-8.17-8.17H16.495
		c0.897-26.634,6.158-52.177,15.094-75.94l22.513,9.325c1.022,0.424,2.081,0.624,3.123,0.624c3.206,0,6.247-1.9,7.551-5.046
		c1.728-4.169-0.252-8.948-4.422-10.675l-22.501-9.319c10.848-23.76,25.473-45.444,43.092-64.296l17.143,17.143
		c1.595,1.596,3.686,2.393,5.777,2.393s4.182-0.797,5.778-2.393c3.191-3.191,3.191-8.364-0.001-11.554L92.5,161.29
		c18.854-17.62,40.537-32.244,64.297-43.093l9.319,22.501c1.303,3.146,4.344,5.046,7.551,5.046c1.041,0,2.101-0.2,3.123-0.624
		c4.169-1.727,6.149-6.507,4.422-10.675l-9.325-22.513c23.763-8.936,49.307-14.198,75.94-15.094v24.356
		c0,4.512,3.657,8.17,8.17,8.17s8.17-3.658,8.17-8.17V96.836c26.634,0.897,52.177,6.158,75.94,15.094l-9.325,22.513
		c-1.728,4.169,0.252,8.948,4.422,10.675c1.022,0.424,2.081,0.624,3.123,0.624c3.206,0,6.247-1.9,7.551-5.046l9.319-22.501
		c23.76,10.848,45.445,25.473,64.297,43.093l-17.143,17.142c-3.192,3.191-3.192,8.363-0.001,11.554
		c1.596,1.596,3.686,2.393,5.778,2.393c2.09,0,4.182-0.797,5.777-2.393l17.143-17.143c17.62,18.852,32.244,40.536,43.092,64.296
		l-22.501,9.32c-4.169,1.727-6.149,6.507-4.422,10.675c1.303,3.146,4.344,5.046,7.551,5.046c1.041,0,2.101-0.2,3.123-0.624
		l22.513-9.325c8.936,23.763,14.198,49.307,15.094,75.94h-24.354c-4.513,0-8.17,3.658-8.17,8.17s3.657,8.17,8.17,8.17h24.511v38.128
		h-384c-4.513,0-8.17,3.658-8.17,8.17s3.657,8.17,8.17,8.17h384v16.34H16.34V415.319z"/>
	<path style="fill:#082947;" d="M190.638,336.34c0-36.04,29.321-65.362,65.362-65.362s65.362,29.321,65.362,65.362
		c0,4.512,3.657,8.17,8.17,8.17h87.149c4.513,0,8.17-3.658,8.17-8.17c0-93.104-75.745-168.851-168.851-168.851
		S87.149,243.236,87.149,336.34c0,4.512,3.657,8.17,8.17,8.17h87.149C186.981,344.511,190.638,340.853,190.638,336.34z M256,183.83
		c81.355,0,148.034,64.029,152.295,144.34h-70.998c-4.113-41.228-39.005-73.532-81.297-73.532s-77.183,32.304-81.297,73.532h-70.998
		C107.966,247.859,174.645,183.83,256,183.83z"/>
</g>
<g>
</g>
<g>
</g>
<g>
</g>
<g>
</g>
<g>
</g>
<g>
</g>
<g>
</g>
<g>
</g>
<g>
</g>
<g>
</g>
<g>
</g>
<g>
</g>
<g>
</g>
<g>
</g>
<g>
</g>
</svg>
