<?xml version="1.0" encoding="iso-8859-1"?>
<!-- Generator: Adobe Illustrator 19.0.0, SVG Export Plug-In . SVG Version: 6.00 Build 0)  -->
<svg version="1.1" id="Layer_1" xmlns="http://www.w3.org/2000/svg" xmlns:xlink="http://www.w3.org/1999/xlink" x="0px" y="0px"
	 viewBox="0 0 512 512" style="enable-background:new 0 0 512 512;" xml:space="preserve">
<g>
	<path style="fill:#BD1515;" d="M65.362,320.087c0,18.057,6.105,34.707,16.34,48.026V16.34h-16.34V320.087z"/>
	<path style="fill:#BD1515;" d="M288.681,320.087c0,18.057,6.105,34.707,16.34,48.026V16.34h-16.34V320.087z"/>
</g>
<g>
	<path style="fill:#185F8D;" d="M177.021,221.32c7.509,0,13.617-6.108,13.617-13.617c0-7.509-6.108-13.617-13.617-13.617
		s-13.617,6.108-13.617,13.617C163.404,215.212,169.512,221.32,177.021,221.32z"/>
	<path style="fill:#185F8D;" d="M400.34,221.32c7.509,0,13.617-6.108,13.617-13.617c0-7.509-6.108-13.617-13.617-13.617
		s-13.617,6.108-13.617,13.617C386.723,215.212,392.831,221.32,400.34,221.32z"/>
</g>
<g>
	<path style="fill:#C1E8E6;" d="M98.043,16.34v367.674c7.328,5.322,15.6,9.409,24.515,11.972v-17.095
		c-4.516,0-8.175-3.658-8.175-8.17V106.213c0-4.512,3.658-8.17,8.17-8.17c0.004,0,0.004-16.34,0.004-16.34
		c-4.516,0-8.175-3.658-8.175-8.17V16.34H98.043z"/>
	<path style="fill:#C1E8E6;" d="M321.362,16.34v367.674c7.328,5.322,15.6,9.409,24.515,11.972v-17.095
		c-4.516,0-8.175-3.658-8.175-8.17v-65.362c0-4.512,3.658-8.17,8.17-8.17c0.004,0,0.004-16.34,0.004-16.34
		c-4.516,0-8.175-3.658-8.175-8.17V16.34H321.362z"/>
</g>
<g>
	<path style="fill:#98D9D5;" d="M130.723,106.213v264.508c0,4.511-3.656,8.168-8.166,8.17v17.095
		c6.925,1.99,14.227,3.08,21.783,3.08c43.549,0,78.979-35.429,78.979-78.979V16.34h-92.596v57.191c0,4.511-3.656,8.168-8.166,8.17
		v16.34C127.067,98.045,130.723,101.702,130.723,106.213z M177.021,177.746c16.519,0,29.957,13.438,29.957,29.957
		s-13.438,29.957-29.957,29.957s-29.957-13.438-29.957-29.957S160.502,177.746,177.021,177.746z"/>
	<path style="fill:#98D9D5;" d="M354.043,305.359v65.362c0,4.511-3.656,8.168-8.166,8.17v17.095c6.925,1.99,14.227,3.08,21.783,3.08
		c43.549,0,78.979-35.429,78.979-78.979V16.34h-92.596v256.338c0,4.511-3.656,8.168-8.166,8.17v16.34
		C350.387,297.191,354.043,300.848,354.043,305.359z M400.34,177.746c16.519,0,29.957,13.438,29.957,29.957
		s-13.438,29.957-29.957,29.957c-16.519,0-29.957-13.438-29.957-29.957S383.821,177.746,400.34,177.746z"/>
</g>
<path style="fill:#F2484B;" d="M462.979,320.087c0,52.56-42.76,95.319-95.319,95.319c-22.234,0-42.713-7.653-58.944-20.461
	c-0.45-0.295-0.869-0.633-1.252-1.009c-21.421-17.493-35.123-44.1-35.123-73.849V16.34H239.66v303.747
	c0,52.56-42.76,95.319-95.319,95.319c-22.234,0-42.713-7.653-58.944-20.461c-0.45-0.295-0.869-0.633-1.252-1.009
	c-21.421-17.493-35.123-44.1-35.123-73.849V16.34H16.34V495.66H495.66V16.34h-32.681V320.087z"/>
<g>
	<path style="fill:#082947;" d="M503.83,0H8.17C3.658,0,0,3.658,0,8.17v495.66c0,4.512,3.658,8.17,8.17,8.17h495.66
		c4.512,0,8.17-3.658,8.17-8.17V8.17C512,3.658,508.342,0,503.83,0z M495.66,495.66H16.34V16.34h32.681v303.747
		c0,29.749,13.702,56.356,35.123,73.849c0.382,0.376,0.802,0.712,1.252,1.009c16.231,12.809,36.71,20.461,58.944,20.461
		c52.56,0,95.319-42.76,95.319-95.319V16.34h32.681v303.747c0,29.749,13.702,56.356,35.123,73.849
		c0.382,0.376,0.802,0.712,1.252,1.009c16.232,12.809,36.71,20.461,58.944,20.461c52.559,0,95.319-42.76,95.319-95.319V16.34h32.681
		V495.66z M122.553,81.702c4.514-0.002,8.17-3.659,8.17-8.17V16.34h92.596v303.747c0,43.549-35.429,78.979-78.979,78.979
		c-7.556,0-14.859-1.089-21.783-3.08c-8.915-2.563-17.187-6.651-24.515-11.972V16.34h16.34v57.191
		C114.383,78.044,118.041,81.702,122.553,81.702z M81.702,368.113c-10.236-13.319-16.34-29.968-16.34-48.026V16.34h16.34V368.113z
		 M345.872,280.848c4.514-0.002,8.17-3.659,8.17-8.17V16.34h92.596v303.747c0,43.549-35.429,78.979-78.979,78.979
		c-7.556,0-14.859-1.089-21.783-3.08c-8.915-2.563-17.187-6.651-24.515-11.972V16.34h16.34v256.338
		C337.702,277.19,341.36,280.848,345.872,280.848z M305.021,368.113c-10.236-13.319-16.34-29.968-16.34-48.026V16.34h16.34V368.113z
		"/>
	<path style="fill:#082947;" d="M354.043,370.721v-65.362c0-4.511-3.656-8.168-8.166-8.17c-4.516,0-8.175,3.658-8.175,8.17v65.362
		c0,4.512,3.658,8.17,8.17,8.17C350.387,378.889,354.043,375.232,354.043,370.721z"/>
	<path style="fill:#082947;" d="M400.34,237.661c16.519,0,29.957-13.438,29.957-29.957s-13.438-29.957-29.957-29.957
		c-16.519,0-29.957,13.438-29.957,29.957S383.821,237.661,400.34,237.661z M400.34,194.086c7.509,0,13.617,6.108,13.617,13.617
		c0,7.509-6.108,13.617-13.617,13.617s-13.617-6.108-13.617-13.617C386.723,200.194,392.831,194.086,400.34,194.086z"/>
	<path style="fill:#082947;" d="M130.723,370.721V106.213c0-4.511-3.656-8.168-8.166-8.17c-4.516,0-8.175,3.658-8.175,8.17v264.508
		c0,4.512,3.658,8.17,8.17,8.17C127.067,378.889,130.723,375.232,130.723,370.721z"/>
	<path style="fill:#082947;" d="M177.021,237.661c16.519,0,29.957-13.438,29.957-29.957s-13.438-29.957-29.957-29.957
		s-29.957,13.438-29.957,29.957S160.502,237.661,177.021,237.661z M177.021,194.086c7.509,0,13.617,6.108,13.617,13.617
		c0,7.509-6.108,13.617-13.617,13.617s-13.617-6.108-13.617-13.617C163.404,200.194,169.512,194.086,177.021,194.086z"/>
</g>
<g>
</g>
<g>
</g>
<g>
</g>
<g>
</g>
<g>
</g>
<g>
</g>
<g>
</g>
<g>
</g>
<g>
</g>
<g>
</g>
<g>
</g>
<g>
</g>
<g>
</g>
<g>
</g>
<g>
</g>
</svg>
